<?xml version="1.0" encoding="utf-8"?>
<!-- Generator: Adobe Illustrator 23.0.0, SVG Export Plug-In . SVG Version: 6.00 Build 0)  -->
<svg version="1.1" id="Capa_1" xmlns="http://www.w3.org/2000/svg" xmlns:xlink="http://www.w3.org/1999/xlink" x="0px" y="0px"
	 viewBox="0 0 50 50" style="enable-background:new 0 0 50 50;" xml:space="preserve">
<style type="text/css">
	.st0{fill:#FFFFFF;}
	.st1{fill-rule:evenodd;clip-rule:evenodd;fill:#FFFFFF;}
</style>
<g>
	<path class="st0" d="M25,3.4c11.9,0,21.6,9.7,21.6,21.6c0,11.9-9.7,21.6-21.6,21.6S3.4,36.9,3.4,25C3.4,13.1,13.1,3.4,25,3.4 M25,0
		C11.2,0,0,11.2,0,25c0,13.8,11.2,25,25,25s25-11.2,25-25C50,11.2,38.8,0,25,0L25,0z"/>
	<path class="st1" d="M14.6,33.7c-1-0.3-1.7-1-2-2c-0.9-2.4-1.1-12.5,0.5-14.4c0.6-0.7,1.3-1.1,2.2-1.2c4.5-0.5,18.5-0.4,20.2,0.2
		c0.9,0.3,1.6,1,2,1.9c1,2.5,1,11.5-0.1,13.9c-0.3,0.6-0.8,1.1-1.4,1.4C34.2,34.4,16.8,34.4,14.6,33.7z M21.8,29
		c2.7-1.4,5.4-2.8,8.2-4.2c-2.7-1.4-5.4-2.8-8.2-4.3C21.8,23.3,21.8,26.1,21.8,29z"/>
</g>
</svg>
