<?xml version="1.0" encoding="utf-8"?>
<!-- Generator: Adobe Illustrator 26.3.1, SVG Export Plug-In . SVG Version: 6.00 Build 0)  -->
<svg version="1.1" id="Capa_1" xmlns="http://www.w3.org/2000/svg" xmlns:xlink="http://www.w3.org/1999/xlink" x="0px" y="0px"
	 viewBox="0 0 50 50" style="enable-background:new 0 0 50 50;" xml:space="preserve">
<style type="text/css">
	.st0{fill:#FFFFFF;}
</style>
<path class="st0" d="M45,15.1c-0.3-2.6-1.2-5-3.2-6.8c-2.1-2-4.5-2.9-7.4-3C29.7,5,18.5,4.8,14.6,5.5C10,6.2,7.1,8.8,5.9,13.2
	C5,16.6,5.2,32.2,5.8,35.7c0.8,4.5,3.5,7.6,8,8.8c3.2,0.8,18.8,0.8,22.2,0.2c4.5-0.8,7.6-3.5,8.8-8C45.6,33.1,45.3,18.2,45,15.1z
	 M41.3,35.1c-0.6,3.5-2.9,5.6-6.4,6.1c-3.3,0.3-17.7,0.6-20.7-0.3c-2.9-0.8-4.5-2.7-5-5.6c-0.5-2.7-0.6-16.5,0-20.3
	c0.5-3.5,2.9-5.6,6.4-6.1C19.1,8.5,32,8.5,35.3,9.1c3.5,0.6,5.6,2.9,6.1,6.4C41.6,18.8,41.8,31.6,41.3,35.1z M25.3,14.8
	c-5.7,0-10.3,4.5-10.3,10.3s4.5,10.3,10.3,10.3s10.3-4.5,10.3-10.3S30.9,14.8,25.3,14.8z M25.2,31.6c-3.6,0-6.7-3-6.7-6.7
	s3-6.7,6.7-6.7s6.7,3,6.7,6.7C31.8,28.8,28.8,31.8,25.2,31.6z M38.3,14.4c0,1.4-1.1,2.4-2.4,2.4c-1.4,0-2.4-1.1-2.4-2.4
	s1.1-2.4,2.4-2.4C37.3,12,38.3,13,38.3,14.4z"/>
<path class="st0" d="M45,15.1c-0.3-2.6-1.2-5-3.2-6.8c-2.1-2-4.5-2.9-7.4-3C29.7,5,18.5,4.8,14.6,5.5C10,6.2,7.1,8.8,5.9,13.2
	C5,16.6,5.2,32.2,5.8,35.7c0.8,4.5,3.5,7.6,8,8.8c3.2,0.8,18.8,0.8,22.2,0.2c4.5-0.8,7.6-3.5,8.8-8C45.6,33.1,45.3,18.2,45,15.1z
	 M41.3,35.1c-0.6,3.5-2.9,5.6-6.4,6.1c-3.3,0.3-17.7,0.6-20.7-0.3c-2.9-0.8-4.5-2.7-5-5.6c-0.5-2.7-0.6-16.5,0-20.3
	c0.5-3.5,2.9-5.6,6.4-6.1C19.1,8.5,32,8.5,35.3,9.1c3.5,0.6,5.6,2.9,6.1,6.4C41.6,18.8,41.8,31.6,41.3,35.1z M25.3,14.8
	c-5.7,0-10.3,4.5-10.3,10.3s4.5,10.3,10.3,10.3s10.3-4.5,10.3-10.3S30.9,14.8,25.3,14.8z M25.2,31.6c-3.6,0-6.7-3-6.7-6.7
	s3-6.7,6.7-6.7s6.7,3,6.7,6.7C31.8,28.8,28.8,31.8,25.2,31.6z M38.3,14.4c0,1.4-1.1,2.4-2.4,2.4c-1.4,0-2.4-1.1-2.4-2.4
	s1.1-2.4,2.4-2.4C37.3,12,38.3,13,38.3,14.4z"/>
</svg>
