<?xml version="1.0" encoding="utf-8"?>
<!-- Generator: Adobe Illustrator 26.3.1, SVG Export Plug-In . SVG Version: 6.00 Build 0)  -->
<svg version="1.1" id="Capa_1" xmlns="http://www.w3.org/2000/svg" xmlns:xlink="http://www.w3.org/1999/xlink" x="0px" y="0px"
	 viewBox="0 0 100 100" style="enable-background:new 0 0 100 100;" xml:space="preserve">
<style type="text/css">
	.st0{fill-rule:evenodd;clip-rule:evenodd;fill:#B2B2B2;}
	.st1{fill:#B2B2B2;}
</style>
<path class="st0" d="M-255.24,8.02v2c0,0.29-0.24,0.52-0.52,0.52h-3.58l0-0.02c0-1.76-1.43-3.2-3.2-3.2c-1.76,0-3.19,1.43-3.19,3.2
	l0,0.02h-12.5l0-0.02c0-1.76-1.43-3.2-3.2-3.2c-1.76,0-3.2,1.43-3.2,3.2l0,0.02h-5.04c-0.29,0-0.52-0.24-0.52-0.52V6.79h29.93
	l1.2,1.42h3C-255.77,8.21-255.49,8.14-255.24,8.02L-255.24,8.02z M-255.25,4.45l-1.25-5.15c-0.53-1.49-1.01-2.6-2.77-2.77
	c-2.83,0-4.41,0-7.23,0v9.18h6.26c0.21,0,0.43,0.08,0.56,0.23l1.07,1.28h2.53c0.45,0,0.81-0.36,0.81-0.81V4.45L-255.25,4.45z
	 M-257.65-0.33l0.38-0.07l0.77,3.25l-1.14,0c-0.19,0-0.4-0.1-0.4-0.29l0.09-2.5C-257.93-0.13-257.84-0.3-257.65-0.33L-257.65-0.33z
	 M-262.33-0.34h3.23c0.19,0,0.35,0.16,0.35,0.35l-0.02,2.52c0,0.19-0.16,0.35-0.35,0.35l-3.22-0.02c-0.19,0-0.35-0.16-0.35-0.35V0
	C-262.67-0.19-262.52-0.34-262.33-0.34L-262.33-0.34z M-281.43,7.89c-1.45,0-2.63,1.18-2.63,2.63c0,1.45,1.18,2.63,2.63,2.63
	s2.63-1.18,2.63-2.63C-278.8,9.07-279.98,7.89-281.43,7.89L-281.43,7.89z M-281.43,9.49c-0.57,0-1.04,0.46-1.04,1.04
	c0,0.57,0.46,1.04,1.04,1.04s1.04-0.46,1.04-1.04C-280.4,9.95-280.86,9.49-281.43,9.49L-281.43,9.49z M-262.54,7.89
	c-1.45,0-2.63,1.18-2.63,2.63c0,1.45,1.18,2.63,2.63,2.63c1.46,0,2.63-1.18,2.63-2.63C-259.91,9.07-261.09,7.89-262.54,7.89
	L-262.54,7.89z M-262.54,9.49c-0.57,0-1.04,0.46-1.04,1.04c0,0.57,0.46,1.04,1.04,1.04c0.57,0,1.04-0.46,1.04-1.04
	C-261.51,9.95-261.97,9.49-262.54,9.49L-262.54,9.49z M-289.28-3.27h1.15V5.9h-1.15V-3.27L-289.28-3.27z M-281.68-3.27h1.15V5.9
	h-1.15V-3.27L-281.68-3.27z M-273.86-3.27h1.15V5.9h-1.15V-3.27L-273.86-3.27z M-292.73,3.44h3.01V5.9h-3.01V3.44L-292.73,3.44z
	 M-287.7,3.44h5.58V5.9h-5.58V3.44L-287.7,3.44z M-280.1,3.44h5.8V5.9h-5.8V3.44L-280.1,3.44z M-272.27,3.44h3.94V5.9h-3.94V3.44
	L-272.27,3.44z M-293.81-3.14h4.09v2.48h-4.09V-3.14L-293.81-3.14z M-287.7-3.14h5.58v2.48h-5.58V-3.14L-287.7-3.14z M-280.1-3.14
	h5.8v2.48h-5.8V-3.14L-280.1-3.14z M-272.27-3.14h2.86v2.48h-2.86V-3.14L-272.27-3.14z M-291.72-0.03h2v2.69h-2V-0.03L-291.72-0.03z
	 M-287.7-0.03h5.58v2.69h-5.58V-0.03L-287.7-0.03z M-280.1-0.03h5.8v2.69h-5.8V-0.03L-280.1-0.03z M-272.27-0.03h4.79v2.69h-4.79
	V-0.03z"/>
<g>
	<path class="st1" d="M-265.29-78.62c-1.11-1.56-2.57-2.73-4.23-3.42v-5.52c0-0.44-0.03-0.88-0.06-1.31
		c-0.04-0.7-0.09-1.43,0.03-1.77c0.05-0.15,0.37-0.27,0.64-0.38c0.45-0.18,1.07-0.42,1.15-1.07c0.09-0.67-0.39-1.37-1.07-1.55
		c-0.17-0.05-0.35-0.07-0.53-0.07c-1.23,0-2.43,1.07-2.74,2.04c-0.24,0.75-0.2,1.7-0.16,2.72c0.02,0.39,0.03,0.79,0.03,1.18v7.4
		c0,0.2,0.14,0.38,0.33,0.44c2.31,0.67,5.01,2.18,5.67,5.6c-0.09-0.09-0.22-0.14-0.35-0.14c-0.05,0-0.11,0-0.16,0
		c-0.56,0-1.52-0.18-1.65-1.37c-0.03-0.23-0.22-0.41-0.46-0.41h-0.31c-0.04,0-0.08,0.01-0.12,0.02c-0.63,0.18-0.76,0.69-0.85,1.03
		c-0.06,0.25-0.11,0.4-0.24,0.5c-0.19,0.14-0.56,0.23-0.95,0.23c-0.46,0-0.88-0.12-1.08-0.3c-0.07-0.06-0.14-0.29-0.19-0.46
		c-0.12-0.38-0.31-1.02-0.96-1.02c-0.7,0-0.84,0.63-0.92,0.96c-0.04,0.17-0.08,0.35-0.16,0.44c-0.2,0.22-0.62,0.36-1.08,0.36
		c-0.36,0-0.71-0.09-0.93-0.23c-0.18-0.12-0.24-0.26-0.33-0.53c-0.11-0.31-0.26-0.74-0.78-0.97c-0.06-0.03-0.12-0.04-0.18-0.04
		c0,0-0.01,0-0.01,0c-0.82,0-0.96,0.75-1.03,1.1c-0.02,0.11-0.06,0.29-0.09,0.35c-0.34,0.2-1.07,0.27-1.43,0.31l-0.1,0.01
		c-0.11,0.01-0.2,0.06-0.27,0.13c0.57-2.75,2.65-4.86,5.65-5.59c0.21-0.05,0.35-0.23,0.35-0.45v-7.4c0-0.38,0.01-0.74,0.01-1.08
		c0.02-1.07,0.04-2-0.19-2.76c-0.26-0.89-0.86-1.48-1.81-1.81c-0.27-0.09-0.68-0.2-1.09-0.2c-0.84,0-1.36,0.46-1.4,1.24
		c-0.05,1.01,0.7,1.22,1.15,1.35c0.24,0.07,0.41,0.12,0.53,0.22c0.14,2.43,0.12,3.6,0.1,5.08c-0.01,0.95-0.03,2.02-0.01,3.63
		c-1.9,1.03-3.33,2.21-4.36,3.61c-1.36,1.84-1.96,4.03-1.79,6.5c0.17,2.5,1.26,4.84,3.06,6.59c1.89,1.84,4.45,2.86,7.19,2.86
		c0.36,0,0.73-0.02,1.1-0.05c2.6-0.24,4.96-1.55,6.67-3.69c1.61-2.02,2.45-4.58,2.3-7.02C-263.48-75.16-264.16-77.04-265.29-78.62z"
		/>
	<path class="st1" d="M-275.25-99.75c-0.15-0.05-0.3-0.07-0.46-0.07c-0.7,0-1.25,0.48-1.29,1.13c-0.03,0.37,0.09,0.71,0.34,0.97
		c0.26,0.28,0.65,0.45,1.05,0.45c0,0,0,0,0,0c0.7,0,1.2-0.48,1.26-1.19C-274.32-99.08-274.64-99.55-275.25-99.75z"/>
	<path class="st1" d="M-271.74-94.95c0.65,0,1.34-0.43,1.41-1.24c0.08-0.99-0.55-1.34-1.09-1.47c-0.12-0.03-0.25-0.04-0.37-0.04
		c-0.76,0-1.31,0.53-1.34,1.29c-0.02,0.41,0.11,0.77,0.37,1.04C-272.52-95.11-272.14-94.95-271.74-94.95
		C-271.74-94.95-271.74-94.95-271.74-94.95z"/>
	<path class="st1" d="M-273.21-94.34c-0.28,0-0.45,0.11-0.55,0.2c-0.13,0.13-0.21,0.31-0.21,0.51c0,0.45,0.39,0.98,0.9,0.98
		c0,0,0,0,0,0c0.25,0,0.46-0.21,0.46-0.46C-272.61-93.23-272.34-94.34-273.21-94.34z"/>
</g>
<g>
	<g>
		<polygon class="st1" points="43.72,88.69 52.64,38.88 50.32,38.72 41.39,88.69 		"/>
		<polygon class="st1" points="72.02,88.69 63.08,38.72 60.77,38.88 69.68,88.69 		"/>
		<rect x="50.72" y="40.53" class="st1" width="11.26" height="0.79"/>
		<polygon class="st1" points="62.28,48.69 51.73,41.29 52.69,40.76 63.24,48.17 		"/>
		<polygon class="st1" points="51.28,48.85 61.83,41.45 60.87,40.93 50.32,48.33 		"/>
		<polygon class="st1" points="65.61,55.74 58.02,51.89 63.66,49.02 62.34,48.5 56.84,51.29 51,48.34 49.67,48.86 55.65,51.89 
			47.73,55.9 49.05,56.43 56.84,52.49 64.29,56.26 		"/>
		<polygon class="st1" points="67.03,64.6 58.2,60.2 64.76,56.92 63.22,56.32 56.82,59.51 50.05,56.14 48.51,56.73 55.45,60.2 
			46.24,64.78 47.78,65.39 56.82,60.88 65.49,65.2 		"/>
		<polygon class="st1" points="68.64,72.55 58.47,68.76 66.43,65.66 64.26,65.42 56.89,68.17 49.09,65.26 47.31,65.78 55.31,68.76 
			44.7,72.71 46.48,73.23 56.89,69.35 66.86,73.06 		"/>
		<polygon class="st1" points="69.75,80.19 58.42,76.4 67.28,73.3 64.87,73.06 56.66,75.81 47.97,72.9 45.99,73.42 54.9,76.4 
			43.08,80.35 45.07,80.87 56.66,76.99 67.77,80.71 		"/>
		<polygon class="st1" points="71.57,87.75 58.8,83.96 68.79,80.87 66.07,80.63 56.82,83.37 47.03,80.47 44.8,80.99 54.84,83.96 
			41.52,87.91 43.76,88.43 56.82,84.55 69.34,88.27 		"/>
		<rect x="49.27" y="48.24" class="st1" width="14.11" height="0.79"/>
		<rect x="49" y="55.74" class="st1" width="15.68" height="0.79"/>
		<rect x="46.97" y="64.87" class="st1" width="19.45" height="0.79"/>
		<rect x="45.81" y="72.58" class="st1" width="21.68" height="0.79"/>
		<rect x="44.7" y="80.07" class="st1" width="23.56" height="0.79"/>
		<rect x="49" y="35.64" class="st1" width="15.68" height="3.99"/>
		<rect x="50.32" y="34.76" class="st1" width="13.3" height="0.88"/>
	</g>
	<polygon class="st1" points="85.92,50.42 25.79,22.67 28.02,17.85 88.15,45.6 	"/>
	
		<rect x="81.99" y="50.61" transform="matrix(4.092507e-03 -1 1 4.092507e-03 32.4604 136.4216)" class="st1" width="5.47" height="2.6"/>
	<rect x="83.8" y="54.41" class="st1" width="0.68" height="31.85"/>
	<rect x="84.98" y="54.41" class="st1" width="0.68" height="31.85"/>
	<rect x="77.02" y="84.11" class="st1" width="15.2" height="4.58"/>
	<rect x="81.58" y="81.78" class="st1" width="6.6" height="2.33"/>
	<polygon class="st1" points="13.39,39.91 9.67,38.21 12.71,20.35 18.98,6.69 31.21,12.3 25.03,25.76 	"/>
	<rect x="10.97" y="38.72" class="st1" width="0.93" height="42.15"/>
	<rect x="8.8" y="71.51" class="st1" width="5.03" height="13.73"/>
	<rect x="5.66" y="85.23" class="st1" width="12.02" height="3.46"/>
	<rect x="0" y="88.43" class="st1" width="100" height="4.88"/>
</g>
</svg>
