<?xml version="1.0" encoding="utf-8"?>
<!-- Generator: Adobe Illustrator 26.3.1, SVG Export Plug-In . SVG Version: 6.00 Build 0)  -->
<svg version="1.1" id="Capa_1" xmlns="http://www.w3.org/2000/svg" xmlns:xlink="http://www.w3.org/1999/xlink" x="0px" y="0px"
	 viewBox="0 0 50 50" style="enable-background:new 0 0 50 50;" xml:space="preserve">
<style type="text/css">
	.st0{fill-rule:evenodd;clip-rule:evenodd;fill:#FFFFFF;}
</style>
<g>
	<path class="st0" d="M5,45.1c0.3-0.9,0.4-1.6,0.6-2.3c0.7-2.5,1.3-4.8,2-7.3c0.1-0.3,0-0.9-0.1-1.2C1.4,22.7,7.6,8.5,20.5,5.4
		c11.6-2.8,22.2,5.1,24.1,15.7c2,11-5.2,21.5-16.1,23.4c-4.4,0.7-8.4,0.1-12.5-1.7c-0.3-0.1-0.9-0.3-1.2-0.1C9.6,43.8,6,44.8,5,45.1
		z M9.6,40.5c2-0.6,3.8-1,5.7-1.5c0.6-0.1,0.9,0,1.3,0.1c3.5,2,7.1,2.8,11,2c9-1.5,15.3-9.9,13.8-18.9C40,13,31.3,6.6,22,8.4
		c-11.2,2-17.1,14.5-11.6,24.4c0.6,1.2,0.7,2,0.4,3.2C10.4,37.4,10.1,38.9,9.6,40.5z"/>
	<path class="st0" d="M30.3,34.4c-3.9-0.1-10-3.2-14.4-10.6c-1.5-2.6-1.3-5.7,0.9-7.7c0.7-0.7,1.7-0.6,2.6-0.4
		c0.1,0,0.4,0.3,0.6,0.6c0.6,1.3,1.2,2.6,1.6,3.9c0.3,0.7-0.3,1.3-1.2,2.5c-0.3,0.4-0.4,0.7-0.1,1.2c1.6,2.8,3.9,4.8,7,6
		c0.4,0.1,0.7,0,1-0.3c1.6-1.9,1.7-2.5,2.6-2.2c4.1,1.9,4.4,2,4.4,2.5C35.2,33.3,32.2,34.5,30.3,34.4z"/>
</g>
</svg>
