<?xml version="1.0" encoding="utf-8"?>
<!-- Generator: Adobe Illustrator 26.3.1, SVG Export Plug-In . SVG Version: 6.00 Build 0)  -->
<svg version="1.1" id="Capa_1" xmlns="http://www.w3.org/2000/svg" xmlns:xlink="http://www.w3.org/1999/xlink" x="0px" y="0px"
	 viewBox="0 0 270 35" style="enable-background:new 0 0 270 35;" xml:space="preserve">
<style type="text/css">
	.st0{fill:#39A935;}
</style>
<g>
	<path class="st0" d="M185.3,21c-1,3.2-3.5,5.3-5.5,4.6c-2-0.6-2.7-3.7-1.7-6.9c1-3.2,3.5-5.3,5.5-4.6
		C185.5,14.8,186.3,17.9,185.3,21 M190,11.1c-1.7-1.8-4-2.8-6.8-2.8c-3.8,0-6.9,1.3-9.1,3.9c-2.2,2.5-3.2,5.6-3.1,9.3
		c0.1,3.2,1.1,5.7,3.1,7.6c1.8,1.6,3.9,2.4,6.3,2.4c3.3,0,6.1-1.2,8.4-3.5c2.5-2.5,3.8-5.9,3.8-10C192.5,15.2,191.6,12.9,190,11.1"
		/>
	<polygon class="st0" points="29.1,3.5 24.6,31.5 16.8,31.5 12.7,21 11,31.5 2.9,31.5 6.6,8.4 14.6,8.4 18.6,19.3 21.2,3.5 	"/>
	<path class="st0" d="M63.4,16.2c0-0.1,0.1-0.3,0.1-0.4c0-1-0.7-1.5-2.1-1.5h-1l-0.7,4.1l0.8,0C62.2,18.3,63.2,17.6,63.4,16.2
		 M71.2,15.4c-0.2,3.7-1.9,6.1-5.2,7.2l3,8.9h-7.9l-2.3-7.4l-1.2,7.4h-8l3.8-23.1h9.8c2.3,0,4.2,0.5,5.6,1.5
		C70.5,11.1,71.4,13,71.2,15.4"/>
	<path class="st0" d="M84.6,16c0.1-1.1-0.6-1.6-2.2-1.6c-0.3,0-0.6,0-0.9,0.1l-0.7,4C83.2,18.5,84.5,17.7,84.6,16 M92.4,15.6
		c-0.5,5.9-3.5,8.9-9,8.9h-3.7l-1.1,7.1h-7.9l3.8-23.1h9.8c2.2,0,4,0.5,5.5,1.4c1.7,1.1,2.6,2.8,2.6,5
		C92.4,15.1,92.4,15.4,92.4,15.6"/>
	<path class="st0" d="M102,22.9l-0.3-5.7l-2.4,5.7H102z M110,31.5h-7.5l-0.3-3h-5.1l-1.2,3h-8.2L98.6,8.4h8.6L110,31.5z"/>
	<polygon class="st0" points="131.2,8.4 130.1,15.5 123.8,15.5 121.2,31.5 113.4,31.5 115.9,15.5 109.6,15.5 110.7,8.4 	"/>
	<path class="st0" d="M139.3,22.9l-0.3-5.7l-2.4,5.7H139.3z M147.4,31.5h-7.5l-0.3-3h-5.1l-1.2,3H125l10.9-23.1h8.6L147.4,31.5z"/>
	<polygon class="st0" points="217,8.4 213.2,31.5 205.5,31.5 201.4,21 199.7,31.5 191.6,31.5 195.3,8.4 203.2,8.4 207.3,19.3 
		209,8.4 	"/>
	<polygon class="st0" points="226.7,8.4 222.9,31.5 215,31.5 218.9,8.4 	"/>
	<path class="st0" d="M259,22.9l-0.3-5.7l-2.4,5.7H259z M267.1,31.5h-7.5l-0.3-3h-5.1l-1.2,3h-8.2l10.9-23.1h8.6L267.1,31.5z"/>
	<path class="st0" d="M42.7,21c-1,3.2-3.5,5.3-5.5,4.6c-2-0.6-2.7-3.7-1.7-6.9c1-3.2,3.5-5.3,5.5-4.6C43,14.8,43.7,17.9,42.7,21
		 M47.4,11.1c-1.7-1.8-4-2.8-6.8-2.8c-3.8,0-6.9,1.3-9.1,3.9c-2.2,2.5-3.2,5.6-3.1,9.3c0.1,3.2,1.1,5.7,3.1,7.6
		c1.8,1.6,3.9,2.4,6.3,2.4c3.3,0,6.1-1.2,8.4-3.5c2.5-2.5,3.8-5.9,3.8-10C49.9,15.2,49,12.9,47.4,11.1"/>
	<path class="st0" d="M240,22.1c-1.1,2.6-3.2,4.1-4.9,3.6c-1.9-0.6-2.6-3.7-1.6-6.9c1-3.2,3.4-5.3,5.3-4.6c1,0.3,1.7,1.3,1.9,2.7
		l6.6-0.2c-0.2-2.2-1-4.1-2.3-5.6c-1.6-1.8-3.8-2.8-6.5-2.8c-3.7,0-6.6,1.3-8.8,3.9c-2.1,2.5-3.1,5.6-3,9.3c0.1,3.2,1,5.7,3,7.6
		c1.7,1.6,3.7,2.4,6.1,2.4c3.2,0,5.9-1.2,8.1-3.5c1.4-1.4,2.3-3.1,2.9-5L240,22.1z"/>
	<path class="st0" d="M160.6,13.8c0.1,0,0.1,0,0.2,0c0.1,0,0.2,0,0.3,0c0.1,0,0.2,0,0.2,0c1.1,0.3,1.9,1.4,2.2,2.7l3.3-0.1l3.3,0
		c0,0,0.3-3.4-1.9-5.7c-1.4-1.5-3.2-2.4-5.4-2.7c0,0-0.1,0-0.1,0c-0.2,0-0.5-0.1-0.7-0.1c-0.4,0-0.7,0-1.1,0c-0.1,0-0.2,0-0.4,0
		c-3.9,0.1-7,1.4-9.4,4c-2.3,2.5-3.4,5.7-3.4,9.5c0,1.7,0.3,3.2,0.9,4.5c0.1,0.3,0.4,0.8,0.5,0.9c0.4,0.7,0.8,1.3,1.4,1.9
		c1.4,1.5,3.2,2.4,5.4,2.7c0,0,0,0,0,0c0.3,0,0.5,0.1,0.8,0.1c0.3,0,0.6,0,0.9,0c0,0,0.1,0,0.1,0h0c0,0,0,0,0,0c0.1,0,0.2,0,0.3,0
		c3.9,0,7.1-1.4,9.5-4c0.2-0.2,0.4-0.5,0.6-0.7l1.6-9h-6.1v0h-4.6l-0.8,4.5h3.5l-0.2,1.2c-1.2,1.5-2.9,2.5-4,2.2
		c-4.1-1-2.3-6.9-2.3-6.9C156.8,15,159,13.8,160.6,13.8"/>
</g>
</svg>
