<?xml version="1.0" encoding="utf-8"?>
<!-- Generator: Adobe Illustrator 26.3.1, SVG Export Plug-In . SVG Version: 6.00 Build 0)  -->
<svg version="1.1" id="Capa_1" xmlns="http://www.w3.org/2000/svg" xmlns:xlink="http://www.w3.org/1999/xlink" x="0px" y="0px"
	 viewBox="0 0 100 100" style="enable-background:new 0 0 100 100;" xml:space="preserve">
<style type="text/css">
	.st0{fill:#B2B2B2;}
</style>
<g>
	<path class="st0" d="M72.12,56.89c-2.98-4.17-6.89-7.33-11.36-9.19V32.89c0-1.17-0.08-2.37-0.15-3.52
		c-0.12-1.89-0.24-3.85,0.08-4.74c0.14-0.4,0.98-0.73,1.72-1.02c1.21-0.48,2.86-1.13,3.1-2.86c0.25-1.81-1.04-3.67-2.86-4.16
		c-0.46-0.12-0.93-0.18-1.41-0.18c-3.29,0-6.51,2.88-7.35,5.47c-0.65,2-0.54,4.57-0.43,7.29c0.04,1.04,0.09,2.12,0.09,3.16v19.85
		c0,0.55,0.36,1.03,0.89,1.18c6.19,1.79,13.44,5.85,15.21,15.02c-0.24-0.25-0.58-0.39-0.95-0.37c-0.15,0.01-0.29,0.01-0.44,0.01
		c-1.5,0-4.07-0.48-4.42-3.67c-0.07-0.63-0.6-1.1-1.23-1.1h-0.84c-0.11,0-0.22,0.02-0.33,0.05c-1.68,0.47-2.04,1.85-2.27,2.77
		c-0.17,0.68-0.29,1.08-0.65,1.34c-0.52,0.38-1.49,0.61-2.54,0.61c-1.23,0-2.36-0.31-2.89-0.8c-0.19-0.17-0.37-0.79-0.51-1.24
		c-0.31-1.02-0.83-2.73-2.57-2.73c-1.88,0-2.25,1.68-2.46,2.59c-0.1,0.47-0.21,0.95-0.42,1.18c-0.54,0.6-1.65,0.97-2.91,0.97
		c-0.97,0-1.91-0.23-2.5-0.61c-0.49-0.32-0.64-0.7-0.88-1.41c-0.29-0.84-0.68-1.98-2.1-2.6c-0.15-0.07-0.32-0.1-0.49-0.1
		c0,0-0.01,0-0.02,0c-2.19,0-2.58,2-2.77,2.96c-0.06,0.3-0.15,0.79-0.25,0.95c-0.92,0.54-2.88,0.73-3.84,0.83l-0.26,0.03
		c-0.29,0.03-0.54,0.16-0.74,0.35c1.54-7.38,7.11-13.04,15.15-14.99c0.55-0.13,0.94-0.63,0.94-1.2V32.33c0-1.01,0.02-1.97,0.04-2.9
		c0.06-2.87,0.11-5.36-0.5-7.4c-0.71-2.38-2.3-3.97-4.85-4.85c-0.72-0.25-1.82-0.55-2.92-0.55c-2.25,0-3.65,1.25-3.75,3.34
		c-0.12,2.72,1.88,3.28,3.08,3.61c0.65,0.18,1.11,0.33,1.42,0.58c0.36,6.52,0.32,9.67,0.26,13.63c-0.04,2.55-0.08,5.43-0.02,9.74
		c-5.1,2.77-8.93,5.94-11.7,9.69c-3.64,4.94-5.26,10.81-4.8,17.43c0.46,6.71,3.37,13,8.2,17.69c5.08,4.94,11.93,7.66,19.3,7.66
		c0.97,0,1.97-0.05,2.95-0.14c6.96-0.65,13.32-4.17,17.89-9.9c4.32-5.41,6.57-12.27,6.17-18.82C76.97,66.18,75.15,61.12,72.12,56.89
		z"/>
	<path class="st0" d="M45.39,0.2C45,0.07,44.58,0,44.16,0c-1.88,0-3.34,1.28-3.47,3.04c-0.07,0.98,0.25,1.91,0.9,2.61
		c0.7,0.75,1.75,1.2,2.81,1.2c0,0,0,0,0,0c1.88,0,3.23-1.28,3.37-3.18C47.89,2.01,47.03,0.75,45.39,0.2z"/>
	<path class="st0" d="M54.81,13.08c1.75,0,3.6-1.14,3.77-3.33c0.2-2.64-1.48-3.6-2.93-3.94c-0.33-0.08-0.67-0.12-1-0.12
		c-2.03,0-3.5,1.42-3.59,3.47c-0.05,1.1,0.29,2.07,0.98,2.79C52.73,12.67,53.74,13.08,54.81,13.08
		C54.81,13.08,54.81,13.08,54.81,13.08z"/>
	<path class="st0" d="M50.88,14.71c-0.75,0-1.22,0.3-1.48,0.55c-0.36,0.35-0.56,0.84-0.56,1.37c0,1.21,1.05,2.62,2.41,2.62
		c0,0,0,0,0,0c0.68,0,1.23-0.55,1.23-1.23C52.49,17.71,53.22,14.71,50.88,14.71z"/>
</g>
</svg>
