<?xml version="1.0" encoding="utf-8"?>
<!-- Generator: Adobe Illustrator 23.0.0, SVG Export Plug-In . SVG Version: 6.00 Build 0)  -->
<svg version="1.1" id="Capa_1" xmlns="http://www.w3.org/2000/svg" xmlns:xlink="http://www.w3.org/1999/xlink" x="0px" y="0px"
	 viewBox="0 0 50 50" style="enable-background:new 0 0 50 50;" xml:space="preserve">
<style type="text/css">
	.st0{fill:#FFFFFF;}
	.st1{fill-rule:evenodd;clip-rule:evenodd;fill:#FFFFFF;}
</style>
<g>
	<path class="st0" d="M25,3.4c11.9,0,21.6,9.7,21.6,21.6c0,11.9-9.7,21.6-21.6,21.6C13.1,46.6,3.4,36.9,3.4,25
		C3.4,13.1,13.1,3.4,25,3.4 M25,0C11.2,0,0,11.2,0,25s11.2,25,25,25s25-11.2,25-25S38.8,0,25,0L25,0z"/>
	<path class="st1" d="M20.4,32.4c-3.1-0.1-5-2.3-5.5-4.1c0.9,0.2,1.7,0.1,2.5-0.1c0,0,0,0,0.1,0c-1.7-0.4-2.9-1.3-3.8-2.7
		c-0.6-0.9-0.9-2-0.9-3.1c0.8,0.4,1.7,0.7,2.6,0.7c-1.2-0.9-2.1-2.1-2.4-3.6c-0.3-1.5-0.1-2.9,0.6-4.3c3.2,3.7,7.2,5.8,12.1,6.1
		c0-0.2-0.1-0.4-0.1-0.6c-0.2-1.4,0.1-2.7,0.9-3.8c0.9-1.5,2.3-2.4,4-2.7c2-0.3,3.7,0.2,5.1,1.6c0.1,0.1,0.2,0.1,0.3,0.1
		c1.2-0.3,2.3-0.7,3.4-1.3c0,0,0.1,0,0.1,0c0,0,0,0,0,0c-0.5,1.4-1.3,2.4-2.5,3.2c1.1-0.1,2.2-0.4,3.3-0.9c0,0,0,0,0,0
		c-0.2,0.3-0.4,0.6-0.7,0.9c-0.6,0.8-1.3,1.4-2.1,2c-0.1,0-0.1,0.1-0.1,0.2c0,0.9,0,1.7-0.1,2.6c-0.2,1.8-0.7,3.6-1.5,5.2
		c-0.8,1.7-1.9,3.3-3.2,4.6c-2.2,2.3-4.9,3.8-8.1,4.5c-1.1,0.2-2.2,0.4-3.3,0.4c-3.4,0.1-6.5-0.7-9.4-2.5c0,0-0.1,0-0.1-0.1
		c2.1,0.2,4,0,5.9-0.8C18.6,33.6,19.6,33.1,20.4,32.4z"/>
</g>
</svg>
