<?xml version="1.0" encoding="utf-8"?>
<!-- Generator: Adobe Illustrator 23.0.0, SVG Export Plug-In . SVG Version: 6.00 Build 0)  -->
<svg version="1.1" id="Capa_1" xmlns="http://www.w3.org/2000/svg" xmlns:xlink="http://www.w3.org/1999/xlink" x="0px" y="0px"
	 viewBox="0 0 50 50" style="enable-background:new 0 0 50 50;" xml:space="preserve">
<style type="text/css">
	.st0{fill:#FFFFFF;}
	.st1{fill-rule:evenodd;clip-rule:evenodd;fill:#FFFFFF;}
</style>
<g>
	<path class="st0" d="M25,3.4c11.9,0,21.6,9.7,21.6,21.6c0,11.9-9.7,21.6-21.6,21.6C13.1,46.6,3.4,36.9,3.4,25
		C3.4,13.1,13.1,3.4,25,3.4 M25,0C11.2,0,0,11.2,0,25s11.2,25,25,25c13.8,0,25-11.2,25-25S38.8,0,25,0L25,0z"/>
	<path class="st1" d="M28.2,15.7c0.9,0,1.8,0,2.7,0c0.1,0,0.2,0,0.4,0V11c-0.5,0-1-0.1-1.5-0.1c-0.9,0-1.9-0.1-2.8-0.1
		c-1.4,0-2.8,0.4-4,1.2c-1.4,1-2.1,2.3-2.4,3.9c-0.1,0.7-0.1,1.4-0.2,2c0,1.1,0,2.1,0,3.2v0.4H16v5.3h4.5v13.3H26V26.9h4.5
		c0.2-1.8,0.5-3.5,0.7-5.3c-0.4,0-0.7,0-1,0c-1.3,0-4.2,0-4.2,0s0-2.6,0-3.8C26,16.2,27,15.8,28.2,15.7z"/>
</g>
</svg>
