<?xml version="1.0" encoding="utf-8"?>
<!-- Generator: Adobe Illustrator 26.3.1, SVG Export Plug-In . SVG Version: 6.00 Build 0)  -->
<svg version="1.1" id="Capa_1" xmlns="http://www.w3.org/2000/svg" xmlns:xlink="http://www.w3.org/1999/xlink" x="0px" y="0px"
	 viewBox="0 0 100 100" style="enable-background:new 0 0 100 100;" xml:space="preserve">
<style type="text/css">
	.st0{fill-rule:evenodd;clip-rule:evenodd;fill:#B2B2B2;}
	.st1{fill:#B2B2B2;}
</style>
<path class="st0" d="M-255.24,8.02v2c0,0.29-0.24,0.52-0.52,0.52h-3.58l0-0.02c0-1.76-1.43-3.2-3.2-3.2c-1.76,0-3.19,1.43-3.19,3.2
	l0,0.02h-12.5l0-0.02c0-1.76-1.43-3.2-3.2-3.2c-1.76,0-3.2,1.43-3.2,3.2l0,0.02h-5.04c-0.29,0-0.52-0.24-0.52-0.52V6.79h29.93
	l1.2,1.42h3C-255.77,8.21-255.49,8.14-255.24,8.02L-255.24,8.02z M-255.25,4.45l-1.25-5.15c-0.53-1.49-1.01-2.6-2.77-2.77
	c-2.83,0-4.41,0-7.23,0v9.18h6.26c0.21,0,0.43,0.08,0.56,0.23l1.07,1.28h2.53c0.45,0,0.81-0.36,0.81-0.81V4.45L-255.25,4.45z
	 M-257.65-0.33l0.38-0.07l0.77,3.25l-1.14,0c-0.19,0-0.4-0.1-0.4-0.29l0.09-2.5C-257.93-0.13-257.84-0.3-257.65-0.33L-257.65-0.33z
	 M-262.33-0.34h3.23c0.19,0,0.35,0.16,0.35,0.35l-0.02,2.52c0,0.19-0.16,0.35-0.35,0.35l-3.22-0.02c-0.19,0-0.35-0.16-0.35-0.35V0
	C-262.67-0.19-262.52-0.34-262.33-0.34L-262.33-0.34z M-281.43,7.89c-1.45,0-2.63,1.18-2.63,2.63c0,1.45,1.18,2.63,2.63,2.63
	s2.63-1.18,2.63-2.63C-278.8,9.07-279.98,7.89-281.43,7.89L-281.43,7.89z M-281.43,9.49c-0.57,0-1.04,0.46-1.04,1.04
	c0,0.57,0.46,1.04,1.04,1.04s1.04-0.46,1.04-1.04C-280.4,9.95-280.86,9.49-281.43,9.49L-281.43,9.49z M-262.54,7.89
	c-1.45,0-2.63,1.18-2.63,2.63c0,1.45,1.18,2.63,2.63,2.63c1.46,0,2.63-1.18,2.63-2.63C-259.91,9.07-261.09,7.89-262.54,7.89
	L-262.54,7.89z M-262.54,9.49c-0.57,0-1.04,0.46-1.04,1.04c0,0.57,0.46,1.04,1.04,1.04c0.57,0,1.04-0.46,1.04-1.04
	C-261.51,9.95-261.97,9.49-262.54,9.49L-262.54,9.49z M-289.28-3.27h1.15V5.9h-1.15V-3.27L-289.28-3.27z M-281.68-3.27h1.15V5.9
	h-1.15V-3.27L-281.68-3.27z M-273.86-3.27h1.15V5.9h-1.15V-3.27L-273.86-3.27z M-292.73,3.44h3.01V5.9h-3.01V3.44L-292.73,3.44z
	 M-287.7,3.44h5.58V5.9h-5.58V3.44L-287.7,3.44z M-280.1,3.44h5.8V5.9h-5.8V3.44L-280.1,3.44z M-272.27,3.44h3.94V5.9h-3.94V3.44
	L-272.27,3.44z M-293.81-3.14h4.09v2.48h-4.09V-3.14L-293.81-3.14z M-287.7-3.14h5.58v2.48h-5.58V-3.14L-287.7-3.14z M-280.1-3.14
	h5.8v2.48h-5.8V-3.14L-280.1-3.14z M-272.27-3.14h2.86v2.48h-2.86V-3.14L-272.27-3.14z M-291.72-0.03h2v2.69h-2V-0.03L-291.72-0.03z
	 M-287.7-0.03h5.58v2.69h-5.58V-0.03L-287.7-0.03z M-280.1-0.03h5.8v2.69h-5.8V-0.03L-280.1-0.03z M-272.27-0.03h4.79v2.69h-4.79
	V-0.03z"/>
<g>
	<path class="st1" d="M-265.29-78.62c-1.11-1.56-2.57-2.73-4.23-3.42v-5.52c0-0.44-0.03-0.88-0.06-1.31
		c-0.04-0.7-0.09-1.43,0.03-1.77c0.05-0.15,0.37-0.27,0.64-0.38c0.45-0.18,1.07-0.42,1.15-1.07c0.09-0.67-0.39-1.37-1.07-1.55
		c-0.17-0.05-0.35-0.07-0.53-0.07c-1.23,0-2.43,1.07-2.74,2.04c-0.24,0.75-0.2,1.7-0.16,2.72c0.02,0.39,0.03,0.79,0.03,1.18v7.4
		c0,0.2,0.14,0.38,0.33,0.44c2.31,0.67,5.01,2.18,5.67,5.6c-0.09-0.09-0.22-0.14-0.35-0.14c-0.05,0-0.11,0-0.16,0
		c-0.56,0-1.52-0.18-1.65-1.37c-0.03-0.23-0.22-0.41-0.46-0.41h-0.31c-0.04,0-0.08,0.01-0.12,0.02c-0.63,0.18-0.76,0.69-0.85,1.03
		c-0.06,0.25-0.11,0.4-0.24,0.5c-0.19,0.14-0.56,0.23-0.95,0.23c-0.46,0-0.88-0.12-1.08-0.3c-0.07-0.06-0.14-0.29-0.19-0.46
		c-0.12-0.38-0.31-1.02-0.96-1.02c-0.7,0-0.84,0.63-0.92,0.96c-0.04,0.17-0.08,0.35-0.16,0.44c-0.2,0.22-0.62,0.36-1.08,0.36
		c-0.36,0-0.71-0.09-0.93-0.23c-0.18-0.12-0.24-0.26-0.33-0.53c-0.11-0.31-0.26-0.74-0.78-0.97c-0.06-0.03-0.12-0.04-0.18-0.04
		c0,0-0.01,0-0.01,0c-0.82,0-0.96,0.75-1.03,1.1c-0.02,0.11-0.06,0.29-0.09,0.35c-0.34,0.2-1.07,0.27-1.43,0.31l-0.1,0.01
		c-0.11,0.01-0.2,0.06-0.27,0.13c0.57-2.75,2.65-4.86,5.65-5.59c0.21-0.05,0.35-0.23,0.35-0.45v-7.4c0-0.38,0.01-0.74,0.01-1.08
		c0.02-1.07,0.04-2-0.19-2.76c-0.26-0.89-0.86-1.48-1.81-1.81c-0.27-0.09-0.68-0.2-1.09-0.2c-0.84,0-1.36,0.46-1.4,1.24
		c-0.05,1.01,0.7,1.22,1.15,1.35c0.24,0.07,0.41,0.12,0.53,0.22c0.14,2.43,0.12,3.6,0.1,5.08c-0.01,0.95-0.03,2.02-0.01,3.63
		c-1.9,1.03-3.33,2.21-4.36,3.61c-1.36,1.84-1.96,4.03-1.79,6.5c0.17,2.5,1.26,4.84,3.06,6.59c1.89,1.84,4.45,2.86,7.19,2.86
		c0.36,0,0.73-0.02,1.1-0.05c2.6-0.24,4.96-1.55,6.67-3.69c1.61-2.02,2.45-4.58,2.3-7.02C-263.48-75.16-264.16-77.04-265.29-78.62z"
		/>
	<path class="st1" d="M-275.25-99.75c-0.15-0.05-0.3-0.07-0.46-0.07c-0.7,0-1.25,0.48-1.29,1.13c-0.03,0.37,0.09,0.71,0.34,0.97
		c0.26,0.28,0.65,0.45,1.05,0.45c0,0,0,0,0,0c0.7,0,1.2-0.48,1.26-1.19C-274.32-99.08-274.64-99.55-275.25-99.75z"/>
	<path class="st1" d="M-271.74-94.95c0.65,0,1.34-0.43,1.41-1.24c0.08-0.99-0.55-1.34-1.09-1.47c-0.12-0.03-0.25-0.04-0.37-0.04
		c-0.76,0-1.31,0.53-1.34,1.29c-0.02,0.41,0.11,0.77,0.37,1.04C-272.52-95.11-272.14-94.95-271.74-94.95
		C-271.74-94.95-271.74-94.95-271.74-94.95z"/>
	<path class="st1" d="M-273.21-94.34c-0.28,0-0.45,0.11-0.55,0.2c-0.13,0.13-0.21,0.31-0.21,0.51c0,0.45,0.39,0.98,0.9,0.98
		c0,0,0,0,0,0c0.25,0,0.46-0.21,0.46-0.46C-272.61-93.23-272.34-94.34-273.21-94.34z"/>
</g>
<g>
	<g>
		<polygon class="st1" points="-41.27,17.6 -38.58,2.54 -39.28,2.49 -41.98,17.6 		"/>
		<polygon class="st1" points="-32.71,17.6 -35.42,2.49 -36.12,2.54 -33.42,17.6 		"/>
		<rect x="-39.16" y="3.04" class="st1" width="3.41" height="0.24"/>
		<polygon class="st1" points="-35.66,5.5 -38.85,3.26 -38.56,3.11 -35.37,5.35 		"/>
		<polygon class="st1" points="-38.99,5.55 -35.79,3.31 -36.08,3.16 -39.28,5.4 		"/>
		<polygon class="st1" points="-34.65,7.64 -36.95,6.47 -35.24,5.6 -35.64,5.45 -37.31,6.29 -39.07,5.4 -39.47,5.56 -37.66,6.47 
			-40.06,7.69 -39.66,7.84 -37.31,6.65 -35.05,7.79 		"/>
		<polygon class="st1" points="-34.22,10.32 -36.89,8.98 -34.91,7.99 -35.37,7.81 -37.31,8.78 -39.36,7.76 -39.82,7.94 -37.72,8.98 
			-40.51,10.37 -40.04,10.55 -37.31,9.19 -34.69,10.5 		"/>
		<polygon class="st1" points="-33.73,12.72 -36.81,11.57 -34.4,10.64 -35.06,10.57 -37.29,11.4 -39.65,10.52 -40.19,10.67 
			-37.77,11.57 -40.98,12.77 -40.44,12.93 -37.29,11.75 -34.27,12.88 		"/>
		<polygon class="st1" points="-33.4,15.03 -36.82,13.89 -34.15,12.95 -34.87,12.88 -37.36,13.71 -39.99,12.83 -40.59,12.98 
			-37.89,13.89 -41.46,15.08 -40.87,15.24 -37.36,14.06 -34,15.19 		"/>
		<polygon class="st1" points="-32.85,17.32 -36.71,16.17 -33.69,15.24 -34.51,15.17 -37.31,16 -40.27,15.12 -40.95,15.27 
			-37.91,16.17 -41.94,17.37 -41.26,17.53 -37.31,16.35 -33.52,17.48 		"/>
		<rect x="-39.59" y="5.37" class="st1" width="4.27" height="0.24"/>
		<rect x="-39.68" y="7.64" class="st1" width="4.74" height="0.24"/>
		<rect x="-40.29" y="10.4" class="st1" width="5.88" height="0.24"/>
		<rect x="-40.64" y="12.73" class="st1" width="6.56" height="0.24"/>
		<rect x="-40.98" y="15" class="st1" width="7.13" height="0.24"/>
		<rect x="-39.68" y="1.56" class="st1" width="4.74" height="1.21"/>
		<rect x="-39.28" y="1.29" class="st1" width="4.02" height="0.27"/>
	</g>
	
		<rect x="-38.07" y="-8.92" transform="matrix(0.4191 -0.9079 0.9079 0.4191 -22.6451 -33.1933)" class="st1" width="1.61" height="20.03"/>
	
		<rect x="-29.7" y="6.09" transform="matrix(4.092507e-03 -1 1 4.092507e-03 -35.2315 -22.4174)" class="st1" width="1.65" height="0.79"/>
	<rect x="-29.15" y="7.24" class="st1" width="0.21" height="9.63"/>
	<rect x="-28.79" y="7.24" class="st1" width="0.21" height="9.63"/>
	<rect x="-31.2" y="16.22" class="st1" width="4.6" height="1.39"/>
	<rect x="-29.82" y="15.51" class="st1" width="2" height="0.7"/>
	<polygon class="st1" points="-50.45,2.85 -51.57,2.33 -50.65,-3.07 -48.76,-7.2 -45.06,-5.5 -46.93,-1.43 	"/>
	<rect x="-51.18" y="2.49" class="st1" width="0.28" height="12.75"/>
	<rect x="-51.84" y="12.41" class="st1" width="1.52" height="4.15"/>
	<rect x="-52.79" y="16.56" class="st1" width="3.63" height="1.05"/>
	<rect x="-54.5" y="17.53" class="st1" width="30.25" height="1.47"/>
</g>
<g>
	<path class="st1" d="M11.82,72.02c0,2.7-2.19,4.88-4.88,4.88l0,0c-2.7,0-4.88-2.19-4.88-4.88V38.47c0-2.7,2.19-4.89,4.88-4.89l0,0
		c2.7,0,4.88,2.19,4.88,4.89V72.02z"/>
	<rect x="4.53" y="74.35" class="st1" width="4.83" height="6.94"/>
	<rect y="81.3" class="st1" width="13.88" height="7.94"/>
	<g>
		<path class="st1" d="M29.15,68.61c0,3.2-2.6,5.8-5.8,5.8l0,0c-3.2,0-5.8-2.6-5.8-5.8V28.76c0-3.2,2.6-5.8,5.8-5.8l0,0
			c3.2,0,5.8,2.6,5.8,5.8V68.61z"/>
		<rect x="20.49" y="71.38" class="st1" width="5.73" height="8.25"/>
		<rect x="15.11" y="79.63" class="st1" width="16.49" height="9.43"/>
		<g>
			<rect x="15.11" y="31.91" class="st1" width="0.32" height="47.8"/>
			<rect x="17.23" y="31.91" class="st1" width="0.32" height="47.8"/>
			<rect x="15.11" y="31.91" class="st1" width="2.45" height="0.61"/>
			<rect x="15.11" y="35.05" class="st1" width="2.45" height="0.61"/>
			<rect x="15.11" y="38.19" class="st1" width="2.45" height="0.61"/>
			<rect x="15.11" y="41.34" class="st1" width="2.45" height="0.61"/>
			<rect x="15.11" y="44.48" class="st1" width="2.45" height="0.62"/>
			<rect x="15.11" y="47.63" class="st1" width="2.45" height="0.61"/>
			<rect x="15.11" y="50.77" class="st1" width="2.45" height="0.61"/>
			<rect x="15.11" y="53.92" class="st1" width="2.45" height="0.61"/>
			<rect x="15.11" y="57.06" class="st1" width="2.45" height="0.61"/>
			<rect x="15.11" y="60.21" class="st1" width="2.45" height="0.61"/>
			<rect x="15.11" y="63.35" class="st1" width="2.45" height="0.61"/>
			<rect x="15.11" y="66.5" class="st1" width="2.45" height="0.61"/>
			<rect x="15.11" y="69.64" class="st1" width="2.45" height="0.61"/>
			<rect x="15.11" y="72.79" class="st1" width="2.45" height="0.61"/>
			<rect x="15.11" y="75.93" class="st1" width="2.45" height="0.61"/>
			<rect x="15.11" y="79.07" class="st1" width="2.45" height="0.61"/>
		</g>
	</g>
	<g>
		<path class="st1" d="M48.45,68.41c0,3.2-2.6,5.8-5.8,5.8l0,0c-3.21,0-5.8-2.6-5.8-5.8V28.55c0-3.2,2.6-5.8,5.8-5.8l0,0
			c3.2,0,5.8,2.6,5.8,5.8V68.41z"/>
		<rect x="39.78" y="71.18" class="st1" width="5.73" height="8.24"/>
		<rect x="34.4" y="79.42" class="st1" width="16.49" height="9.44"/>
		<g>
			<rect x="34.4" y="31.7" class="st1" width="0.32" height="47.8"/>
			<rect x="36.53" y="31.7" class="st1" width="0.32" height="47.8"/>
			<rect x="34.4" y="31.7" class="st1" width="2.45" height="0.61"/>
			<rect x="34.4" y="34.85" class="st1" width="2.45" height="0.61"/>
			<rect x="34.4" y="37.99" class="st1" width="2.45" height="0.61"/>
			<rect x="34.4" y="41.13" class="st1" width="2.45" height="0.61"/>
			<rect x="34.4" y="44.28" class="st1" width="2.45" height="0.61"/>
			<rect x="34.4" y="47.42" class="st1" width="2.45" height="0.61"/>
			<rect x="34.4" y="50.57" class="st1" width="2.45" height="0.61"/>
			<rect x="34.4" y="53.71" class="st1" width="2.45" height="0.61"/>
			<rect x="34.4" y="56.86" class="st1" width="2.45" height="0.61"/>
			<rect x="34.4" y="60" class="st1" width="2.45" height="0.61"/>
			<rect x="34.4" y="63.15" class="st1" width="2.45" height="0.61"/>
			<rect x="34.4" y="66.29" class="st1" width="2.45" height="0.61"/>
			<rect x="34.4" y="69.44" class="st1" width="2.45" height="0.61"/>
			<rect x="34.4" y="72.58" class="st1" width="2.45" height="0.61"/>
			<rect x="34.4" y="75.72" class="st1" width="2.45" height="0.61"/>
			<rect x="34.4" y="78.87" class="st1" width="2.45" height="0.61"/>
		</g>
	</g>
	<rect x="6.17" y="10.76" class="st1" width="1.29" height="22.82"/>
	<rect x="22.7" y="10.76" class="st1" width="1.29" height="12.2"/>
	<rect x="42" y="10.76" class="st1" width="1.29" height="12.2"/>
	<rect x="6.17" y="10.76" class="st1" width="54.24" height="1.17"/>
	<rect x="58.3" y="10.76" class="st1" width="2.11" height="41.46"/>
	<rect x="66.77" y="72.51" class="st1" width="16.71" height="7.2"/>
	<rect x="62.06" y="79.54" class="st1" width="27.3" height="9.32"/>
	<g>
		<path class="st1" d="M71.7,60.6c0,2.68,1.68,4.03,3.75,4.03c2.07,0,3.74-1.35,3.74-4.03c0-2.68-3.74-6.66-3.74-6.66
			S71.7,57.92,71.7,60.6z"/>
		<path class="st1" d="M88.81,46.47H62.08c-6.17,0-11.18,5.88-11.18,13.13v0.11c0,7.25,5.01,13.13,11.18,13.13h26.74
			c6.18,0,11.19-5.88,11.19-13.13V59.6C100,52.35,94.99,46.47,88.81,46.47z M75.45,67.06c-4.09,0-7.41-3.32-7.41-7.41
			c0-4.09,3.32-7.41,7.41-7.41c4.09,0,7.41,3.32,7.41,7.41C82.85,63.74,79.54,67.06,75.45,67.06z"/>
	</g>
</g>
</svg>
