<?xml version="1.0" encoding="utf-8"?>
<!-- Generator: Adobe Illustrator 26.3.1, SVG Export Plug-In . SVG Version: 6.00 Build 0)  -->
<svg version="1.1" id="Capa_1" xmlns="http://www.w3.org/2000/svg" xmlns:xlink="http://www.w3.org/1999/xlink" x="0px" y="0px"
	 viewBox="0 0 50 50" style="enable-background:new 0 0 50 50;" xml:space="preserve">
<style type="text/css">
	.st0{fill:#FFFFFF;}
</style>
<g>
	<path class="st0" d="M11.7,18.9h6.2v19.9h-6.2C11.7,38.8,11.7,18.9,11.7,18.9z M14.7,9c2,0,3.5,1.6,3.5,3.5s-1.6,3.5-3.5,3.5
		s-3.5-1.6-3.5-3.5S12.8,9,14.7,9"/>
	<path class="st0" d="M21.8,18.9h6v2.7h0.1c0.9-1.6,2.8-3.2,5.9-3.2c6.2,0,7.4,4.1,7.4,9.5v10.9H35v-9.6c0-2.3,0-5.2-3.2-5.2
		s-3.7,2.6-3.7,5.1v9.9h-6.2v-20H21.8z"/>
</g>
</svg>
